<?xml version="1.0" encoding="iso-8859-1"?>
<!-- Uploaded to: SVG Repo, www.svgrepo.com, Generator: SVG Repo Mixer Tools -->
<svg fill="#000000" height="800px" width="800px" version="1.1" id="Layer_1" xmlns="http://www.w3.org/2000/svg" xmlns:xlink="http://www.w3.org/1999/xlink" 
	 viewBox="0 0 512 512" xml:space="preserve">
<g>
	<g>
		<path d="M452.267,349.867c-11.759,0-22.699,3.464-31.949,9.353l-12.749-14.874c21.461-16.299,48.691-20.864,94.217-11.708
			c2.534,0.503,5.111-0.145,7.091-1.766c1.971-1.63,3.123-4.045,3.123-6.605c0-23.194-26.641-51.2-59.733-51.2
			c-5.965,0-11.631,0.683-17.135,1.69c-0.725-58.155-10.965-84.523-45.099-118.656l-2.697-2.697
			c-10.991-10.948-18.398-18.423-23.748-29.491c11.213,2.603,23.851,4.087,37.478,4.087c4.719,0,8.533-3.823,8.533-8.533V51.2
			c0-4.71-3.814-8.533-8.533-8.533c-44.553,0-78.976,15.403-84.48,36.676l-55.415,23.748c-4.335,1.852-6.34,6.869-4.48,11.204
			c1.382,3.234,4.531,5.171,7.842,5.171c1.126,0,2.27-0.222,3.362-0.7l31.377-13.448c0.06,0.154,0.034,0.316,0.102,0.461
			c37.419,86.383,45.124,142.891,23.578,172.757c-17.903,24.806-57.566,34.244-124.484,29.483l14.618-58.487
			c0.162-0.674,0.247-1.365,0.247-2.065c0-5.939-2.116-11.332-5.513-15.684c3.388-3.78,5.513-8.721,5.513-14.182v-8.533
			c0-11.759-9.566-21.333-21.333-21.333H55.467c-11.767,0-21.333,9.574-21.333,21.333v8.533c0,3.046,0.666,5.931,1.818,8.559
			C14.677,238.532,0,276.599,0,324.267c0,29.611,20.028,41.907,38.784,48.034C30.362,382.822,25.6,395.947,25.6,409.6
			c0,32.939,26.803,59.733,59.733,59.733c32.93,0,59.733-26.795,59.733-59.733c0-4.941-0.811-9.762-1.997-14.507
			c23.569,3.191,46.473,4.89,68.873,4.89c47.531,0,92.996-7.279,138.752-21.658c-0.486,4.727-0.828,9.472-0.828,14.208
			c0,3.831,2.551,7.194,6.238,8.218c0.759,0.213,1.536,0.316,2.295,0.316c2.935,0,5.734-1.519,7.305-4.122
			c10.001-16.572,19.209-30.302,29.244-41.105l12.416,14.49c-9.199,10.513-14.831,24.235-14.831,39.27
			c0,32.939,26.803,59.733,59.733,59.733c32.93,0,59.733-26.795,59.733-59.733C512,376.661,485.197,349.867,452.267,349.867z
			 M392.533,59.947V76.8h-17.067c-4.719,0-8.533,3.823-8.533,8.533s3.814,8.533,8.533,8.533h17.067v16.853
			c-36.736-1.886-59.733-15.676-59.733-25.387S355.797,61.832,392.533,59.947z M51.2,209.067c0-2.313,1.954-4.267,4.267-4.267H192
			c2.313,0,4.267,1.954,4.267,4.267v8.533c0,2.313-1.954,4.267-4.267,4.267H55.467c-2.313,0-4.267-1.954-4.267-4.267V209.067z
			 M85.333,452.267c-23.526,0-42.667-19.14-42.667-42.667c0-12.117,5.18-23.714,14.225-31.804l0.435-0.393
			c11.383,3.081,22.622,5.922,33.63,8.371l-12.723,19.089c-2.62,3.917-1.562,9.225,2.364,11.836
			c1.459,0.973,3.106,1.434,4.727,1.434c2.756,0,5.47-1.331,7.108-3.797l16.555-24.832c5.205,1.007,10.351,1.911,15.479,2.773
			l1.101,3.089c1.613,4.557,2.432,9.353,2.432,14.234C128,433.126,108.86,452.267,85.333,452.267z M353.911,359.407
			c-94.379,31.479-187.136,31.283-300.715-0.768c-29.986-7.219-36.13-18.961-36.13-34.372c0-50.287,17.988-85.333,34.133-85.333
			h136.533c4.412,0,8.047,3.362,8.491,7.654l-16.768,67.072c-0.606,2.423-0.128,4.983,1.323,7.023s3.721,3.328,6.204,3.55
			c79.522,7.014,127.147-4.318,149.794-35.703c25.728-35.652,18.816-95.872-21.743-189.525c-0.06-0.128-0.171-0.213-0.23-0.333
			l3.985-1.707c4.173,7.91,12.553,14.771,24.004,20.019c6.767,22.665,17.656,33.724,32.495,48.512l2.679,2.671
			c31.505,31.505,39.936,54.707,40.149,111.3C384.981,292.514,362.59,324.062,353.911,359.407z M372.574,355.883
			c11.358-36.147,39.415-65.749,79.693-65.749c18.406,0,33.365,11.836,39.578,23.415
			C429.227,304.102,397.85,323.157,372.574,355.883z M452.267,452.267c-23.526,0-42.667-19.14-42.667-42.667
			c0-9.847,3.49-18.807,9.114-26.035l27.076,31.59c1.681,1.963,4.079,2.978,6.477,2.978c1.963,0,3.942-0.674,5.547-2.057
			c3.584-3.063,4.002-8.457,0.922-12.032l-27.068-31.582c6.144-3.413,13.09-5.53,20.599-5.53c23.526,0,42.667,19.14,42.667,42.667
			C494.933,433.126,475.793,452.267,452.267,452.267z"/>
	</g>
</g>
</svg>